<mxfile host="app.diagrams.net" agent="Mozilla/5.0 (Macintosh; Intel Mac OS X 10_15_7) AppleWebKit/537.36 (KHTML, like Gecko) Chrome/128.0.0.0 Safari/537.36" version="24.8.4">
  <diagram name="Page-1" id="FqdHs43BnUCMVHUMFNCo">
    <mxGraphModel dx="1912" dy="955" grid="0" gridSize="10" guides="1" tooltips="1" connect="1" arrows="1" fold="1" page="0" pageScale="1" pageWidth="827" pageHeight="1169" math="0" shadow="0">
      <root>
        <mxCell id="0" />
        <mxCell id="1" parent="0" />
        <mxCell id="HWVIOXMQ4AxRaVNNL75A-1" value="" style="rounded=1;whiteSpace=wrap;html=1;" vertex="1" parent="1">
          <mxGeometry x="43" y="160" width="737" height="378" as="geometry" />
        </mxCell>
        <mxCell id="HWVIOXMQ4AxRaVNNL75A-2" value="" style="rounded=0;whiteSpace=wrap;html=1;" vertex="1" parent="1">
          <mxGeometry x="81" y="173" width="183" height="347" as="geometry" />
        </mxCell>
        <mxCell id="HWVIOXMQ4AxRaVNNL75A-3" value="" style="rounded=0;whiteSpace=wrap;html=1;" vertex="1" parent="1">
          <mxGeometry x="273" y="381" width="473" height="139" as="geometry" />
        </mxCell>
        <mxCell id="HWVIOXMQ4AxRaVNNL75A-4" value="" style="rounded=0;whiteSpace=wrap;html=1;" vertex="1" parent="1">
          <mxGeometry x="273" y="171" width="476" height="200" as="geometry" />
        </mxCell>
        <mxCell id="HWVIOXMQ4AxRaVNNL75A-5" value="栈" style="text;html=1;align=center;verticalAlign=middle;whiteSpace=wrap;rounded=0;fontSize=16;" vertex="1" parent="1">
          <mxGeometry x="84" y="176" width="39" height="18" as="geometry" />
        </mxCell>
        <mxCell id="HWVIOXMQ4AxRaVNNL75A-6" value="堆" style="text;html=1;align=center;verticalAlign=middle;whiteSpace=wrap;rounded=0;fontSize=16;" vertex="1" parent="1">
          <mxGeometry x="276" y="176" width="40" height="19" as="geometry" />
        </mxCell>
        <mxCell id="HWVIOXMQ4AxRaVNNL75A-7" value="方法区" style="text;html=1;align=center;verticalAlign=middle;whiteSpace=wrap;rounded=0;fontSize=16;" vertex="1" parent="1">
          <mxGeometry x="273" y="385" width="52" height="23" as="geometry" />
        </mxCell>
        <mxCell id="HWVIOXMQ4AxRaVNNL75A-8" value="" style="edgeStyle=none;curved=1;rounded=0;orthogonalLoop=1;jettySize=auto;html=1;fontSize=12;startSize=8;endSize=8;" edge="1" parent="1" source="HWVIOXMQ4AxRaVNNL75A-10" target="HWVIOXMQ4AxRaVNNL75A-11">
          <mxGeometry relative="1" as="geometry" />
        </mxCell>
        <mxCell id="HWVIOXMQ4AxRaVNNL75A-9" style="edgeStyle=none;curved=1;rounded=0;orthogonalLoop=1;jettySize=auto;html=1;fontSize=12;startSize=8;endSize=8;entryX=0.067;entryY=0.645;entryDx=0;entryDy=0;entryPerimeter=0;" edge="1" parent="1" target="HWVIOXMQ4AxRaVNNL75A-17">
          <mxGeometry relative="1" as="geometry">
            <mxPoint x="112.64442176870747" y="403.5" as="sourcePoint" />
            <mxPoint x="316.00043083900215" y="213.5" as="targetPoint" />
          </mxGeometry>
        </mxCell>
        <mxCell id="HWVIOXMQ4AxRaVNNL75A-10" value="arr1" style="text;html=1;align=center;verticalAlign=middle;whiteSpace=wrap;rounded=0;fontSize=16;" vertex="1" parent="1">
          <mxGeometry x="87" y="404" width="36" height="30" as="geometry" />
        </mxCell>
        <mxCell id="HWVIOXMQ4AxRaVNNL75A-11" value="0x001" style="text;html=1;align=center;verticalAlign=middle;whiteSpace=wrap;rounded=0;fontSize=16;" vertex="1" parent="1">
          <mxGeometry x="181" y="404" width="60" height="31" as="geometry" />
        </mxCell>
        <mxCell id="HWVIOXMQ4AxRaVNNL75A-12" value="" style="edgeStyle=none;curved=1;rounded=0;orthogonalLoop=1;jettySize=auto;html=1;fontSize=12;startSize=8;endSize=8;entryX=0.067;entryY=0.516;entryDx=0;entryDy=0;entryPerimeter=0;" edge="1" parent="1" target="HWVIOXMQ4AxRaVNNL75A-15">
          <mxGeometry relative="1" as="geometry">
            <mxPoint x="132" y="373" as="sourcePoint" />
            <mxPoint x="181" y="406" as="targetPoint" />
          </mxGeometry>
        </mxCell>
        <mxCell id="HWVIOXMQ4AxRaVNNL75A-13" style="edgeStyle=none;curved=1;rounded=0;orthogonalLoop=1;jettySize=auto;html=1;fontSize=12;startSize=8;endSize=8;" edge="1" parent="1" source="HWVIOXMQ4AxRaVNNL75A-14" target="HWVIOXMQ4AxRaVNNL75A-17">
          <mxGeometry relative="1" as="geometry" />
        </mxCell>
        <mxCell id="HWVIOXMQ4AxRaVNNL75A-14" value="arr2" style="text;html=1;align=center;verticalAlign=middle;whiteSpace=wrap;rounded=0;fontSize=16;" vertex="1" parent="1">
          <mxGeometry x="87" y="358" width="36" height="30" as="geometry" />
        </mxCell>
        <mxCell id="HWVIOXMQ4AxRaVNNL75A-15" value="0x001" style="text;html=1;align=center;verticalAlign=middle;whiteSpace=wrap;rounded=0;fontSize=16;" vertex="1" parent="1">
          <mxGeometry x="179" y="358" width="60" height="31" as="geometry" />
        </mxCell>
        <mxCell id="HWVIOXMQ4AxRaVNNL75A-16" value="" style="rounded=1;whiteSpace=wrap;html=1;" vertex="1" parent="1">
          <mxGeometry x="307" y="214" width="125" height="138" as="geometry" />
        </mxCell>
        <mxCell id="HWVIOXMQ4AxRaVNNL75A-17" value="0x001" style="text;html=1;align=center;verticalAlign=middle;whiteSpace=wrap;rounded=0;fontSize=16;" vertex="1" parent="1">
          <mxGeometry x="311" y="183" width="60" height="31" as="geometry" />
        </mxCell>
        <mxCell id="HWVIOXMQ4AxRaVNNL75A-18" style="edgeStyle=none;curved=1;rounded=0;orthogonalLoop=1;jettySize=auto;html=1;fontSize=12;startSize=8;endSize=8;" edge="1" parent="1" source="HWVIOXMQ4AxRaVNNL75A-19" target="HWVIOXMQ4AxRaVNNL75A-23">
          <mxGeometry relative="1" as="geometry" />
        </mxCell>
        <mxCell id="HWVIOXMQ4AxRaVNNL75A-19" value="1" style="text;html=1;align=center;verticalAlign=middle;whiteSpace=wrap;rounded=0;fontSize=16;" vertex="1" parent="1">
          <mxGeometry x="295" y="224" width="34" height="31" as="geometry" />
        </mxCell>
        <mxCell id="HWVIOXMQ4AxRaVNNL75A-20" value="34" style="text;html=1;align=center;verticalAlign=middle;whiteSpace=wrap;rounded=0;fontSize=16;" vertex="1" parent="1">
          <mxGeometry x="295" y="293" width="60" height="31" as="geometry" />
        </mxCell>
        <mxCell id="HWVIOXMQ4AxRaVNNL75A-21" value="22" style="text;html=1;align=center;verticalAlign=middle;whiteSpace=wrap;rounded=0;fontSize=16;" vertex="1" parent="1">
          <mxGeometry x="295" y="263" width="60" height="26" as="geometry" />
        </mxCell>
        <mxCell id="HWVIOXMQ4AxRaVNNL75A-22" value="arr1 [0]&amp;nbsp; &amp;nbsp; &amp;nbsp;arr2[0]" style="text;html=1;align=center;verticalAlign=middle;whiteSpace=wrap;rounded=0;fontSize=16;" vertex="1" parent="1">
          <mxGeometry x="435" y="222" width="177" height="31" as="geometry" />
        </mxCell>
        <mxCell id="HWVIOXMQ4AxRaVNNL75A-23" value="10" style="text;html=1;align=center;verticalAlign=middle;whiteSpace=wrap;rounded=0;fontSize=16;" vertex="1" parent="1">
          <mxGeometry x="368" y="222" width="55" height="31" as="geometry" />
        </mxCell>
        <mxCell id="HWVIOXMQ4AxRaVNNL75A-24" value="arr1 [1]&amp;nbsp; &amp;nbsp; &amp;nbsp;arr2[1]" style="text;html=1;align=center;verticalAlign=middle;whiteSpace=wrap;rounded=0;fontSize=16;" vertex="1" parent="1">
          <mxGeometry x="432" y="265" width="177" height="31" as="geometry" />
        </mxCell>
        <mxCell id="HWVIOXMQ4AxRaVNNL75A-25" value="arr1 [2&amp;nbsp; &amp;nbsp; &amp;nbsp;arr2[2]" style="text;html=1;align=center;verticalAlign=middle;whiteSpace=wrap;rounded=0;fontSize=16;" vertex="1" parent="1">
          <mxGeometry x="430" y="301" width="177" height="31" as="geometry" />
        </mxCell>
      </root>
    </mxGraphModel>
  </diagram>
</mxfile>
